<svg width="40" height="40" viewBox="0 0 40 40" fill="none" xmlns="http://www.w3.org/2000/svg">
<path d="M5.51083 16.9322C4.51892 16.9322 4.2678 17.6855 4.8077 18.4263L7.88387 22.6702C8.29822 23.2603 8.96367 23.2478 9.36546 22.6702L12.4416 18.4138C12.9564 17.6981 12.7179 16.9322 11.7385 16.9322H9.93047C11.0605 12.4247 15.116 9.12249 20.0002 9.12249C23.3526 9.13504 26.2907 10.692 28.1741 13.1655C28.6888 13.7556 29.4422 13.9439 30.0574 13.4919C30.635 13.0776 30.748 12.2614 30.183 11.5834C27.8727 8.55748 24.0557 6.52344 20.0002 6.52344C13.76 6.52344 8.474 11.031 7.26864 16.9322H5.51083ZM20.0002 32.4888C26.2405 32.4888 31.5265 27.9813 32.7318 22.0801H34.4896C35.4815 22.0801 35.7326 21.3267 35.1927 20.5859L32.1291 16.3421C31.7022 15.7645 31.0368 15.7645 30.635 16.3421L27.5588 20.5985C27.044 21.3267 27.2826 22.0801 28.2619 22.0801H30.0825C28.94 26.5876 24.8844 29.9023 20.0002 29.9023C16.6478 29.8898 13.7098 28.3203 11.8264 25.8468C11.3116 25.2567 10.5708 25.0684 9.94303 25.5204C9.36546 25.9347 9.25246 26.7508 9.81747 27.4414C12.1277 30.4548 15.9447 32.4888 20.0002 32.4888Z" fill="#1C1C1E"/>
<path d="M5.51083 16.9322C4.51892 16.9322 4.2678 17.6855 4.8077 18.4263L7.88387 22.6702C8.29822 23.2603 8.96367 23.2478 9.36546 22.6702L12.4416 18.4138C12.9564 17.6981 12.7179 16.9322 11.7385 16.9322H9.93047C11.0605 12.4247 15.116 9.12249 20.0002 9.12249C23.3526 9.13504 26.2907 10.692 28.1741 13.1655C28.6888 13.7556 29.4422 13.9439 30.0574 13.4919C30.635 13.0776 30.748 12.2614 30.183 11.5834C27.8727 8.55748 24.0557 6.52344 20.0002 6.52344C13.76 6.52344 8.474 11.031 7.26864 16.9322H5.51083ZM20.0002 32.4888C26.2405 32.4888 31.5265 27.9813 32.7318 22.0801H34.4896C35.4815 22.0801 35.7326 21.3267 35.1927 20.5859L32.1291 16.3421C31.7022 15.7645 31.0368 15.7645 30.635 16.3421L27.5588 20.5985C27.044 21.3267 27.2826 22.0801 28.2619 22.0801H30.0825C28.94 26.5876 24.8844 29.9023 20.0002 29.9023C16.6478 29.8898 13.7098 28.3203 11.8264 25.8468C11.3116 25.2567 10.5708 25.0684 9.94303 25.5204C9.36546 25.9347 9.25246 26.7508 9.81747 27.4414C12.1277 30.4548 15.9447 32.4888 20.0002 32.4888Z" stroke="black"/>
</svg>
