<svg width="33" height="42" viewBox="0 0 33 42" fill="none" xmlns="http://www.w3.org/2000/svg">
<path d="M16.4998 33.6667V21M16.4998 21L10.2856 25.2222M16.4998 21L22.714 25.2222M18.5712 2.00184C18.3734 2 18.1513 2 17.8974 2H8.62888C6.3087 2 5.14774 2 4.26155 2.46019C3.48203 2.86499 2.84872 3.51044 2.45154 4.3049C2 5.20809 2 6.3913 2 8.75597V33.2448C2 35.6095 2 36.7912 2.45154 37.6944C2.84872 38.4889 3.48203 39.1355 4.26155 39.5403C5.14688 40 6.30645 40 8.62214 40L24.3775 40C26.6932 40 27.851 40 28.7364 39.5403C29.5159 39.1355 30.1513 38.4889 30.5485 37.6944C30.9996 36.7921 30.9996 35.612 30.9996 33.252V15.3542C30.9996 15.0951 30.9995 14.8685 30.9977 14.6667M18.5712 2.00184C19.1629 2.00732 19.5372 2.02923 19.8945 2.11666C20.3172 2.22009 20.721 2.39111 21.0917 2.62261C21.5096 2.88364 21.8685 3.24939 22.5845 3.97917L29.0587 10.5774C29.7752 11.3076 30.1314 11.6718 30.3876 12.0979C30.6148 12.4756 30.7828 12.8875 30.8843 13.3184C30.97 13.6824 30.992 14.064 30.9977 14.6667M18.5712 2.00184V7.91111C18.5712 10.2758 18.5712 11.4573 19.0227 12.3605C19.4199 13.1549 20.0532 13.8021 20.8327 14.2069C21.7181 14.6667 22.8776 14.6667 25.1933 14.6667H30.9977M30.9977 14.6667H31" stroke="black" stroke-opacity="0.2" stroke-width="2.5" stroke-linecap="round" stroke-linejoin="round"/>
</svg>
