<svg width="32" height="22" viewBox="0 0 32 22" fill="none" xmlns="http://www.w3.org/2000/svg">
<path d="M3.39888 13.6683C6.06408 16.3218 10.7122 20 16.0003 20C21.2884 20 25.9356 16.3218 28.6009 13.6683C29.3038 12.9685 29.6564 12.6174 29.8801 11.9302C30.04 11.44 30.04 10.5601 29.8801 10.0699C29.6564 9.38276 29.3038 9.03161 28.6009 8.3317C25.9356 5.67815 21.2884 2 16.0003 2C10.7122 2 6.06408 5.67815 3.39888 8.3317C2.69543 9.03206 2.34367 9.38246 2.11977 10.0699C1.96008 10.5601 1.96008 11.44 2.11977 11.9302C2.34367 12.6177 2.69543 12.9679 3.39888 13.6683Z" stroke="black" stroke-width="2.9" stroke-linecap="round" stroke-linejoin="round"/>
<path d="M11 11C11 13.7615 13.2385 16 16 16C18.7615 16 21 13.7615 21 11C21 8.2385 18.7615 6 16 6C13.2385 6 11 8.2385 11 11Z" stroke="black" stroke-width="2.9" stroke-linecap="round" stroke-linejoin="round"/>
</svg>
