<svg width="12" height="14" viewBox="0 0 12 14" fill="none" xmlns="http://www.w3.org/2000/svg">
<path d="M1 11.366V2.63471C1 1.91473 1 1.55435 1.1334 1.34132C1.24984 1.1554 1.4293 1.03333 1.62854 1.00415C1.85673 0.970722 2.13661 1.14025 2.69557 1.47882L9.90299 5.84445L9.90561 5.84576C10.5233 6.21992 10.8323 6.40709 10.9337 6.65655C11.0221 6.87417 11.0221 7.12538 10.9337 7.343C10.8322 7.59281 10.5225 7.78074 9.90299 8.15596L2.69557 12.5216C2.13621 12.8604 1.85682 13.0293 1.62854 12.9958C1.4293 12.9667 1.24984 12.8446 1.1334 12.6587C1 12.4457 1 12.0859 1 11.366Z" stroke="white" stroke-width="2" stroke-linecap="round" stroke-linejoin="round"/>
</svg>
