<svg width="29" height="35" viewBox="0 0 29 35" fill="none" xmlns="http://www.w3.org/2000/svg">
<path d="M0 30.2341V4.76789C0 2.66797 0 1.61684 0.38687 0.995529C0.724525 0.453256 1.24497 0.0972202 1.82276 0.0120988C2.48453 -0.0853948 3.29618 0.409054 4.91716 1.39655L25.8187 14.1296L25.8263 14.1335C27.6176 15.2248 28.5137 15.7707 28.8077 16.4983C29.0641 17.133 29.0641 17.8657 28.8077 18.5004C28.5133 19.229 27.6151 19.7772 25.8187 20.8715L4.91716 33.6046C3.29502 34.5928 2.48476 35.0854 1.82276 34.9879C1.24497 34.9027 0.724525 34.5468 0.38687 34.0045C0 33.3832 0 32.334 0 30.2341Z" fill="white" fill-opacity="0.5"/>
</svg>
