<svg width="28" height="28" viewBox="0 0 28 28" fill="none" xmlns="http://www.w3.org/2000/svg">
<path d="M2 14C2 20.6274 7.37258 26 14 26C20.6274 26 26 20.6274 26 14C26 7.37258 20.6274 2 14 2C7.37258 2 2 7.37258 2 14Z" stroke="white" stroke-width="2.9" stroke-linecap="round" stroke-linejoin="round"/>
<path d="M2 14C2 20.6274 7.37258 26 14 26C20.6274 26 26 20.6274 26 14C26 7.37258 20.6274 2 14 2C7.37258 2 2 7.37258 2 14Z" stroke="black" stroke-width="2.9" stroke-linecap="round" stroke-linejoin="round"/>
<path d="M11.3333 18V10L18 14L11.3333 18Z" stroke="white" stroke-width="2.9" stroke-linecap="round" stroke-linejoin="round"/>
<path d="M11.3333 18V10L18 14L11.3333 18Z" stroke="black" stroke-width="2.9" stroke-linecap="round" stroke-linejoin="round"/>
</svg>
